<?xml version="1.0" standalone="no"?>
<!DOCTYPE svg PUBLIC "-//W3C//DTD SVG 20010904//EN"
 "http://www.w3.org/TR/2001/REC-SVG-20010904/DTD/svg10.dtd">
<svg version="1.0" xmlns="http://www.w3.org/2000/svg"
 width="512.000000pt" height="512.000000pt" viewBox="0 0 512.000000 512.000000"
 preserveAspectRatio="xMidYMid meet">
<metadata>
Created by potrace 1.14, written by Peter Selinger 2001-2017
</metadata>
<g transform="translate(0.000000,512.000000) scale(0.100000,-0.100000)"
fill="#000000" stroke="none">
<path d="M2175 4945 c-209 -96 -405 -185 -435 -199 -30 -14 -111 -50 -180 -81
-69 -31 -156 -71 -195 -89 -38 -18 -95 -43 -125 -57 -30 -13 -223 -101 -430
-194 l-375 -171 -3 -97 -3 -97 -74 0 -75 0 0 -225 0 -225 93 -1 c50 0 118 0
149 1 l58 1 0 -565 0 -565 37 -3 38 -3 1 -82 1 -83 -38 0 -39 0 0 -208 0 -209
-72 1 -73 1 -3 -151 -3 -151 -62 2 c-34 1 -68 -1 -75 -3 -9 -3 -12 -66 -12
-268 l0 -264 -22 0 c-29 -1 -99 -10 -116 -15 -9 -3 -12 -62 -12 -250 l0 -245
-65 0 -65 0 0 -224 0 -223 295 -1 295 -1 -4 34 c-5 40 -1 43 84 41 68 -1 66 0
69 -53 l1 -21 2190 0 2190 0 0 224 0 224 -65 0 -65 0 0 250 c0 137 -3 249 -7
248 -5 -1 -38 2 -75 6 l-68 8 0 266 0 267 -75 -1 -74 0 -3 150 -3 150 -72 0
-73 0 0 563 0 563 -25 1 c-14 1 -31 2 -37 3 -9 1 -13 26 -14 84 -1 68 2 82 15
83 61 4 56 -16 59 212 l2 207 150 0 150 0 0 225 0 225 -75 0 -75 0 0 95 0 96
-72 33 c-340 157 -649 296 -659 296 -5 0 -9 -6 -9 -13 0 -7 -6 -21 -13 -31
-13 -17 -17 -16 -85 15 -50 22 -72 38 -72 50 0 10 5 21 10 24 22 14 7 32 -52
59 -174 81 -1159 527 -1173 531 -5 2 -181 -75 -390 -170z m59 -2283 c-1 -466
-2 -852 -3 -857 -1 -7 -171 -10 -500 -10 l-500 -1 0 850 c0 468 3 854 5 858 3
4 229 8 502 7 l497 0 -1 -847z m1653 -10 l-2 -857 -497 0 c-274 0 -498 2 -499
5 -3 14 -4 1696 -2 1702 2 4 228 7 502 7 l500 0 -2 -857z"/>
</g>
</svg>
